<?xml version="1.0" standalone="no"?>
<!DOCTYPE svg PUBLIC "-//W3C//DTD SVG 20010904//EN"
 "http://www.w3.org/TR/2001/REC-SVG-20010904/DTD/svg10.dtd">
<svg version="1.0" xmlns="http://www.w3.org/2000/svg"
 width="198.000000pt" height="198.000000pt" viewBox="0 0 198.000000 198.000000"
 preserveAspectRatio="xMidYMid meet">
<metadata>
Created by potrace 1.11, written by Peter Selinger 2001-2013
</metadata>
<g transform="translate(0.000000,198.000000) scale(0.100000,-0.100000)"
fill="#000000" stroke="none">
<path d="M967 1914 c-1 -1 -49 -4 -107 -7 -152 -8 -261 -47 -420 -149 -113
-73 -278 -266 -310 -364 -7 -19 -16 -34 -20 -34 -5 0 -14 -19 -21 -42 -6 -24
-17 -54 -24 -68 -25 -48 -53 -284 -35 -295 3 -2 5 -23 4 -47 -1 -24 4 -58 12
-76 7 -18 13 -33 13 -35 -4 -16 20 -91 42 -138 16 -33 29 -65 29 -73 0 -7 7
-19 15 -26 8 -7 15 -17 15 -22 0 -14 102 -148 149 -195 87 -89 212 -165 351
-214 36 -13 67 -26 70 -29 3 -4 12 -7 20 -8 8 0 44 -3 80 -7 125 -13 280 -6
318 14 10 5 34 11 55 15 23 4 52 21 74 41 31 29 35 37 29 68 -7 38 -41 75 -75
82 -13 2 -53 -8 -89 -22 -60 -23 -81 -26 -197 -26 -150 0 -222 16 -325 71 -36
20 -67 38 -70 42 -3 3 -27 22 -55 42 -178 129 -285 352 -280 580 3 107 9 153
33 223 9 28 17 52 17 55 5 30 83 157 124 202 9 9 21 23 27 30 69 81 260 188
364 204 19 3 53 9 75 13 41 7 178 6 205 -1 8 -3 42 -10 75 -17 103 -22 208
-81 322 -182 29 -25 159 -206 158 -219 0 -3 7 -24 16 -45 38 -92 42 -122 43
-278 l1 -159 28 -24 c55 -47 134 -26 143 38 1 12 7 37 11 53 10 33 9 145 -2
215 -3 25 -8 56 -9 70 -2 14 -8 38 -15 53 -6 15 -10 31 -8 35 4 15 -115 241
-146 276 -63 70 -80 91 -89 111 -5 11 -30 36 -56 55 -26 19 -49 38 -52 41 -9
10 -148 89 -158 89 -5 0 -44 16 -87 35 -42 19 -80 33 -85 30 -5 -3 -11 -1 -15
5 -4 6 -9 9 -13 6 -4 -2 -40 -1 -80 3 -40 4 -74 6 -75 5z"/>
<path d="M835 1583 c-84 -17 -82 -16 -120 -34 -53 -25 -126 -73 -164 -106 -20
-18 -39 -33 -43 -33 -21 -1 -136 -224 -140 -271 -1 -17 -5 -32 -9 -34 -3 -2
-7 -32 -8 -66 -1 -35 -4 -66 -6 -69 -2 -3 1 -24 6 -46 5 -21 12 -50 14 -64 8
-45 11 -54 28 -94 9 -21 17 -42 17 -47 0 -5 4 -9 9 -9 5 0 14 -13 21 -30 7
-16 17 -30 23 -30 6 0 8 -2 5 -5 -8 -9 82 -103 132 -139 84 -59 195 -102 295
-112 28 -2 55 -6 61 -9 6 -2 31 1 55 7 24 5 53 11 64 13 24 4 98 30 143 51 42
19 69 10 131 -45 68 -60 157 -79 231 -47 19 8 52 35 73 60 32 39 39 55 42 102
7 82 -22 139 -93 189 -60 42 -92 97 -74 126 6 9 13 56 17 105 13 187 -49 336
-202 489 -63 63 -94 85 -163 117 -96 44 -219 55 -345 31z m116 -160 c5 -14 8
-32 5 -39 -2 -6 2 -21 10 -33 8 -11 12 -21 7 -21 -12 0 57 -60 70 -61 7 -1 23
-3 36 -4 23 -2 91 30 91 44 0 3 9 12 21 19 24 15 21 17 95 -73 42 -51 73 -104
78 -133 21 -114 24 -180 9 -191 -4 -3 -9 -22 -11 -41 -1 -19 -7 -36 -12 -38
-6 -2 -10 -15 -10 -29 0 -31 -8 -27 -14 8 -2 13 -5 25 -7 27 -1 1 -3 7 -4 12
-1 6 -4 12 -5 15 -1 3 -3 8 -4 13 -2 8 -49 79 -68 103 -24 29 -153 105 -215
128 -150 53 -222 100 -224 145 -1 22 -1 23 5 59 3 12 5 27 5 34 1 7 17 28 38
48 46 45 89 48 104 8z m-286 -158 c4 -43 24 -95 36 -95 5 0 9 -7 9 -14 0 -21
57 -62 140 -102 39 -18 73 -33 76 -33 20 3 144 -55 171 -80 12 -12 27 -21 33
-21 21 0 54 -93 55 -155 4 -153 -144 -267 -295 -228 -76 19 -117 47 -131 90
-10 31 -9 38 10 62 51 64 59 117 23 164 -31 41 -60 57 -103 57 -45 0 -109 -49
-115 -88 -4 -26 -13 -24 -20 4 -4 16 -15 45 -24 64 -19 40 -20 165 -1 213 6
15 8 27 6 27 -3 0 8 24 24 54 28 51 91 129 99 122 2 -2 5 -20 7 -41z"/>
<path d="M1749 422 c-18 -9 -45 -33 -60 -52 -24 -32 -26 -40 -20 -88 6 -40 15
-60 41 -87 18 -19 37 -32 41 -29 4 2 10 0 14 -6 11 -17 70 -11 115 13 86 45
102 141 36 212 -18 19 -46 37 -62 39 -16 3 -39 8 -50 10 -12 3 -37 -3 -55 -12z"/>
</g>
</svg>
